<mxfile host="65bd71144e">
    <diagram id="ufZ9yGPlBGdsZULrEy9K" name="Page-1">
        <mxGraphModel dx="738" dy="465" grid="1" gridSize="10" guides="1" tooltips="1" connect="1" arrows="1" fold="1" page="1" pageScale="0.8" pageWidth="850" pageHeight="1100" math="0" shadow="0">
            <root>
                <mxCell id="0"/>
                <mxCell id="1" parent="0"/>
            </root>
        </mxGraphModel>
    </diagram>
</mxfile>